<svg class="w-full h-full object-cover" role="image" width="300" height="281" viewBox="0 0 300 281" fill="none" xmlns="http://www.w3.org/2000/svg"><path fill-rule="evenodd" clip-rule="evenodd" d="M248.101 129.521C248.162 129.39 248.173 129.295 248.224 129.263C250.422 127.872 252.827 128.203 255.206 128.484C255.748 128.548 255.864 129.507 255.401 129.863C255.09 130.101 254.732 130.349 254.361 130.426C252.173 130.875 250.056 130.752 248.101 129.521ZM160.168 123.296C158.867 123.355 157.895 122.641 157.672 121.569C157.571 121.084 157.593 120.628 158.232 120.438C159.731 119.992 161.259 119.965 162.796 120.053C163.59 120.097 163.535 120.747 163.635 121.296C163.744 121.898 163.778 122.454 163.037 122.639C162.019 122.894 160.993 123.11 160.168 123.296ZM264.165 105.404C265.282 105.332 265.828 105.379 265.996 106.103C266.144 106.739 266.307 107.354 265.547 107.776C264.925 108.12 264.35 108.548 263.751 108.934C263.415 109.152 263.091 109.407 262.726 109.56C261.973 109.876 260.391 109.377 260.145 108.79C259.946 108.314 260.417 107.172 261.14 106.788C262.263 106.192 263.452 105.725 264.165 105.404ZM266.807 114.463H266.912C266.912 115.344 266.922 116.226 266.91 117.107C266.889 118.629 266.563 118.829 265.251 118.065C264.778 117.789 264.337 117.423 263.97 117.018C263.815 116.848 263.758 116.371 263.884 116.202C264.957 114.757 265.288 113.203 264.866 111.441C264.711 110.789 265.332 110.706 265.798 110.629C266.344 110.538 266.778 110.721 266.798 111.337C266.831 112.378 266.807 113.421 266.807 114.463ZM261.091 120.339C261.176 119.868 261.237 119.39 261.356 118.927C261.466 118.502 261.934 118.367 262.302 118.644C263.328 119.418 264.279 120.314 265.378 120.958C266.486 121.606 266.636 122.442 266.384 123.538C266.201 124.334 265.729 124.573 264.962 124.141C264.122 123.667 263.373 122.998 262.494 122.635C261.392 122.179 261.095 121.404 261.091 120.339ZM253.851 117.409C256.168 117.284 256.152 117.312 257.088 117.882C257.569 118.175 257.866 118.601 257.65 119.055C257.479 119.413 256.984 119.821 256.611 119.844C254.529 119.968 252.441 119.987 250.354 120.029C250.119 120.033 249.816 120.035 249.658 119.903C249.376 119.667 249.075 119.356 248.99 119.023C248.935 118.807 249.184 118.357 249.407 118.256C250.056 117.96 250.746 117.712 251.445 117.587C252.233 117.447 253.048 117.462 253.851 117.409ZM247.544 123.984C248.229 123.709 248.659 123.421 249.117 123.371C250.94 123.169 252.77 122.984 254.602 122.912C255.43 122.88 256.449 122.733 256.915 123.72C257.11 124.134 255.811 125.399 255.003 125.681C254.854 125.732 254.69 125.754 254.531 125.763C252.11 125.896 249.732 125.844 247.544 123.984ZM157.206 26.2936C158.298 26.207 158.776 26.5471 159.363 27.1103C161.675 29.325 163.708 31.8447 166.398 33.6562C166.983 34.0505 167.081 34.8158 166.667 35.5968C166.57 35.7802 166.124 35.9107 165.887 35.8551C165.6 35.7892 165.324 35.537 165.115 35.3007C163.68 33.6782 162.123 32.1903 160.415 30.8528C159.6 30.216 158.831 29.5112 158.102 28.7769C157.544 28.2143 157.065 27.5692 156.597 26.9269C156.533 26.8383 156.685 26.4749 156.831 26.3781C157.01 26.2565 157.288 26.2805 157.206 26.2936ZM103.749 197.549C103.86 197.43 103.944 197.261 104.066 197.228C104.198 197.192 104.404 197.234 104.508 197.323C105.301 198.007 105.982 198.889 106.881 199.363C107.934 199.918 108.527 200.88 109.341 201.623C109.953 202.183 110.221 203.141 110.579 203.95C110.802 204.457 110.386 204.923 109.83 204.86C109.591 204.832 109.338 204.812 109.122 204.719C107.941 204.208 106.752 203.711 105.606 203.127C105.297 202.97 105.024 202.558 104.921 202.208C104.492 200.743 104.133 199.257 103.752 197.777C103.732 197.702 103.749 197.619 103.749 197.549ZM132.132 26.4825C132.355 26.2895 132.506 26.0476 132.689 26.0188C134.561 25.7248 135.863 26.5642 137.012 28.0034C138.657 30.0656 140.434 32.0254 142.203 33.9839C143.121 34.9999 143.163 35.6071 142.089 36.5723C141.925 36.72 141.426 36.755 141.279 36.6224C140.209 35.6586 139.186 34.6406 138.152 33.6363C136.434 31.9663 134.738 30.2723 133.298 28.3482C132.873 27.7787 132.539 27.1406 132.132 26.4825ZM255.777 114.656C253.673 114.482 252.143 114.379 250.618 114.213C250.156 114.162 249.695 113.973 249.268 113.773C248.92 113.611 248.875 112.953 249.17 112.724C250.881 111.397 252.803 110.723 254.985 110.918C256.029 111.011 257.069 111.145 258.111 111.252C259.493 111.395 260.819 111.734 262.003 112.477C262.226 112.617 262.452 112.981 262.429 113.218C262.405 113.483 262.136 113.764 261.905 113.959C261.736 114.102 261.461 114.162 261.227 114.183C259.223 114.367 257.218 114.533 255.777 114.656ZM179.177 239.49C176.801 239.255 174.393 239.018 171.986 238.777C171.828 238.76 171.671 238.711 171.515 238.673C170.965 238.538 170.667 238.181 170.764 237.625C170.971 236.434 171.207 235.248 171.471 234.068C171.575 233.607 171.965 233.425 172.403 233.537C174.849 234.16 177.107 235.219 179.115 236.739C179.732 237.206 180.172 237.928 180.629 238.579C180.895 238.959 180.637 239.39 180.177 239.441C179.856 239.475 179.533 239.474 179.177 239.49ZM149.47 26.3231C150.663 26.1658 151.544 26.8479 152.344 27.6743C152.733 28.0762 153.039 28.5598 153.442 28.9459C156.108 31.5075 158.816 34.0265 161.452 36.6203C162.183 37.3396 162.719 38.2594 163.326 39.1009C163.406 39.2115 163.45 39.4787 163.384 39.5426C162.934 39.9795 162.502 40.5105 161.951 40.7351C161.697 40.8389 161.118 40.3896 160.81 40.0709C159.979 39.2122 159.252 38.2498 158.412 37.4C157.285 36.2604 156.05 35.2272 154.932 34.0787C153.033 32.1257 151.269 30.0408 149.098 28.3599C148.749 28.0899 148.564 27.5727 148.377 27.1378C148.168 26.6522 148.413 26.3918 148.921 26.3602C149.082 26.3499 149.243 26.3382 149.47 26.3231ZM180.589 225.794C179.725 225.794 178.513 225.771 177.302 225.8C176.082 225.83 175.264 224.949 174.246 224.524C174.259 223.657 174.233 222.787 174.302 221.925C174.34 221.449 174.506 220.976 174.674 220.523C174.809 220.159 175.109 220.086 175.437 220.314C176.155 220.816 176.797 221.536 177.592 221.799C181.256 223.011 184.963 223.587 188.693 221.96C189.548 221.587 190.288 221.964 190.622 222.807C190.941 223.613 190.595 224.181 189.474 224.503C186.685 225.301 183.901 226.156 180.589 225.794ZM123.698 26.4523C125.116 26.0847 126.246 26.1088 127.181 27.1502C130.344 30.6735 133.527 34.1803 136.673 37.7188C137.258 38.3762 137.742 39.1332 138.207 39.8847C138.698 40.6774 138.369 41.1885 137.399 41.3781C136.333 41.5856 135.613 41.2627 134.898 40.3965C131.62 36.4273 128.469 32.351 125.02 28.522C124.502 27.9477 124.171 27.2045 123.698 26.4523ZM122.541 133.9C122.547 133.952 122.553 134.002 122.559 134.053C122.64 134.053 122.721 134.053 122.801 134.053C126.316 134.07 129.648 134.806 132.699 136.611C132.866 136.71 132.938 136.972 133.054 137.158C132.862 137.25 132.675 137.412 132.479 137.422C131.194 137.491 129.908 137.515 128.624 137.58C128.067 137.609 127.501 137.649 126.961 137.778C125.72 138.072 124.506 138.49 123.258 138.737C121.381 139.108 119.554 138.788 117.91 137.845C116.431 136.997 116.545 135.44 118.066 134.65C118.345 134.504 118.669 134.412 118.983 134.366C120.166 134.195 121.354 134.053 122.541 133.9ZM161.032 51.4864C161.032 52.8445 161.056 53.73 161.026 54.6141C160.987 55.8018 160.755 55.9687 159.77 55.4521C157.922 54.4849 156.108 53.4538 154.262 52.4825C153.69 52.1823 153.694 51.698 153.837 51.2577C154.249 49.9896 154.187 48.7469 153.96 47.4507C153.74 46.1874 153.707 44.8911 153.606 43.6079C153.552 42.9278 153.874 42.6215 154.417 42.9237C155.813 43.7 157.306 43.8085 158.851 43.8099C160.343 43.8112 160.372 43.8504 160.503 45.227C160.714 47.4665 160.883 49.71 161.032 51.4864ZM223.354 240.17C223.474 239.776 223.52 239.457 223.664 239.192C224.62 237.431 225.662 235.712 226.551 233.919C227.479 232.049 229.131 230.875 230.569 229.508C231.444 228.675 232.538 228.696 233.186 229.406C234.652 231.012 235.958 232.743 236.641 234.849C237.196 236.556 237 237.228 235.319 237.885C233.238 238.698 231.083 239.348 228.918 239.912C227.145 240.375 225.307 240.446 223.354 240.17ZM196.199 245.62V245.535C193.38 245.441 190.562 245.31 187.743 245.263C183.38 245.191 179.016 245.208 174.653 245.12C173.124 245.089 171.591 244.908 170.074 244.69C169.677 244.632 169.01 244.153 169.029 243.911C169.089 243.127 169.292 242.299 169.666 241.61C170.025 240.951 170.832 241.189 171.455 241.232C173.787 241.393 176.115 241.628 178.448 241.774C181.908 241.992 185.368 242.19 188.831 242.335C196.09 242.638 203.349 242.962 210.611 243.158C214.879 243.273 219.174 243.633 223.401 242.595C223.784 242.501 224.208 242.593 224.605 242.539C227.143 242.201 229.73 242.484 232.23 241.469C233.554 240.932 234.959 240.526 236.289 239.944C236.621 239.799 237.267 239.693 237.382 239.85C237.763 240.372 237.169 240.717 236.869 240.993C234.668 243.029 232.147 244.311 229.052 244.304C227.769 244.301 226.485 244.506 225.201 244.619C222.069 244.897 219.008 245.696 215.821 245.649C209.281 245.553 202.74 245.62 196.199 245.62ZM110.408 29.029C110.408 29.0544 110.409 29.0791 110.41 29.1038C109.845 29.1038 109.275 29.0516 108.718 29.1135C106.909 29.3134 105.682 30.4269 105.285 32.3661C104.746 34.993 105.229 37.5024 107.292 39.487C107.926 40.097 108.619 40.6788 109.114 41.3932C110.004 42.6778 110.947 43.847 110.338 45.7512C109.389 48.7242 108.854 51.8292 108.127 54.8744C108.084 55.0537 107.897 55.1987 107.779 55.3594C107.613 55.2028 107.353 55.0736 107.297 54.8847C106.262 51.3703 104.323 48.2922 102.614 45.102C101.854 43.6835 101.091 42.2636 100.405 40.8079C98.7893 37.3808 98.8875 33.5676 98.0343 29.9666C97.9972 29.8121 98.002 29.6445 98.0082 29.4837C98.0694 27.901 98.5743 27.2869 100.166 27.1577C102.336 26.9819 104.514 26.8933 106.69 26.8026C110.316 26.6522 113.943 26.5278 117.57 26.398C118.055 26.3808 118.541 26.3726 119.023 26.4001C119.91 26.4502 120.227 26.8534 120.227 27.8275C120.227 28.5969 119.727 28.7563 119.111 28.7748C116.21 28.862 113.308 28.9452 110.408 29.029ZM189.665 207.811C189.67 207.771 189.675 207.732 189.68 207.691C190.89 207.691 192.099 207.677 193.307 207.698C193.855 207.706 194.23 207.906 194.066 208.58C193.588 210.537 193.749 211.11 193.374 213.086C193.2 214.008 192.611 214.257 191.904 214.442C191.05 214.667 190.153 214.745 189.322 215.028C188.154 215.425 187.819 216.011 187.877 217.23C187.901 217.711 188.028 218.189 188.026 218.669C188.024 219.656 187.597 220.28 186.677 220.382C183.94 220.682 181.169 220.823 178.586 219.687C177.592 219.25 176.758 218.392 175.955 217.619C175.665 217.339 175.499 216.704 175.586 216.298C176.319 212.922 176.42 210.931 177.25 207.577C177.32 207.299 177.82 206.944 178.125 206.938C179.408 206.916 180.697 206.969 181.976 207.076C184.542 207.293 187.102 207.563 189.665 207.811ZM102.613 24.7837C101.241 24.7837 100.434 24.7871 99.6273 24.7823C99.1259 24.7789 98.9061 24.489 98.9466 24.0198C98.9809 23.6234 99.0132 23.2078 99.1554 22.8438C99.5635 21.7989 99.9845 20.7555 100.477 19.7484C101.466 17.7267 102.525 15.7408 104.007 14.0207C104.939 12.9395 106.081 12.3954 107.54 12.168C110.243 11.7476 112.831 12.0464 115.407 12.8137C116.323 13.0865 117.317 13.2252 118.136 13.6779C120.758 15.1294 123.126 16.9292 125.009 19.3046C125.557 19.9964 126.146 20.6593 126.639 21.3881C126.741 21.5393 126.56 22.1225 126.41 22.1671C124.334 22.7847 122.268 23.6811 120.146 23.8508C114.127 24.333 108.084 24.513 102.613 24.7837ZM69.3553 275.494C68.871 275.494 68.3853 275.515 67.9024 275.491C64.6476 275.326 62.2605 273.809 60.7424 270.913C58.8512 267.305 59.519 261.836 62.3759 258.63C65.09 255.584 68.366 253.778 72.6381 254.272C74.9875 254.545 77.0737 255.438 78.6083 257.144C81.4392 260.292 81.7655 264.174 80.1409 267.805C78.1344 272.288 74.7388 275.439 69.3553 275.494ZM186.788 267.118C186.976 261.437 190.128 257 194.975 255.105C199.47 253.349 206.168 255.487 207.69 261.085C208.248 263.141 208.146 265.035 207.612 267.02C206.336 271.766 201.604 276.169 195.774 275.957C193.669 275.88 191.695 275.404 189.979 273.925C187.706 271.967 186.976 269.461 186.788 267.118ZM198.582 215.48C199.47 215.48 200.36 215.447 201.246 215.496C201.626 215.518 202.12 215.598 202.351 215.847C203.964 217.587 206.137 218.554 207.958 220.002C208.642 220.546 209.348 221.041 210.116 221.494C212.044 222.629 214.188 222.976 216.26 223.568C217.96 224.055 219.698 224.484 221.448 224.699C224.04 225.017 226.47 225.811 228.866 226.773C229.464 227.014 229.593 227.45 229.148 227.861C228.085 228.844 226.996 229.803 225.86 230.7C225.511 230.975 224.979 231.13 224.525 231.141C223.397 231.171 222.243 231.215 221.14 231.023C217.895 230.457 214.678 229.743 211.529 228.76C209.615 228.162 207.713 227.518 205.802 226.909C205.04 226.666 204.266 226.46 203.497 226.24C200.827 225.475 198.615 223.805 196.192 222.552C194.054 221.447 192.607 219.619 191.025 217.923C190.581 217.446 190.81 216.727 191.436 216.607C193.801 216.155 196.101 215.227 198.582 215.48ZM112.787 112.752V112.685C113.676 112.685 114.564 112.669 115.452 112.689C116.824 112.719 118.195 112.764 119.566 112.822C120.051 112.842 120.352 113.137 120.164 113.605C119.931 114.186 119.606 114.741 119.255 115.263C118.76 115.996 118.151 116.654 117.684 117.402C116.116 119.921 113.731 121.607 111.548 123.498C111.248 123.758 110.871 123.946 110.502 124.104C108.728 124.861 106.95 125.611 105.163 126.336C100.258 128.327 95.1402 129.302 89.8632 129.478C89.3136 129.495 88.7414 129.386 88.207 129.236C87.5125 129.041 87.2796 128.498 87.7488 127.945C88.786 126.722 89.8378 125.484 91.0454 124.437C93.8976 121.964 96.8349 119.589 99.7572 117.198C101.186 116.029 102.683 114.943 104.101 113.763C105.097 112.934 106.181 112.667 107.461 112.73C109.232 112.819 111.011 112.752 112.787 112.752ZM146.732 29.8306C147.07 30.6076 147.346 31.0898 147.494 31.6084C148.401 34.7828 149.266 37.9688 150.17 41.1439C150.899 43.7055 151.412 46.287 151.462 48.9709C151.495 50.7342 150.089 51.7166 148.664 51.5153C147.966 51.4164 147.235 51.1869 146.638 50.8222C145.244 49.9704 144.265 48.7078 143.481 47.2775C143.137 46.649 142.756 45.9971 142.238 45.5258C141.958 45.2717 141.303 45.2243 140.906 45.3562C140.36 45.5368 140.394 46.1668 140.557 46.6078C140.917 47.5853 141.386 48.5209 141.787 49.484C142.127 50.2994 142.093 50.4856 141.281 50.7487C138.821 51.5448 136.6 52.7676 134.402 54.1202C132.814 55.097 130.92 55.5758 129.161 54.4087C128.182 53.7575 127.304 52.9015 126.522 52.014C125.265 50.5879 124.753 48.7524 124.226 46.9877C123.416 44.2763 122.959 41.4921 123.332 38.6393C123.347 38.5211 123.494 38.359 123.607 38.3308C123.736 38.2985 123.948 38.3466 124.036 38.4421C124.251 38.6764 124.504 38.934 124.584 39.2252C124.895 40.3539 125.756 40.9082 126.692 41.4241C127.322 41.7717 127.89 42.2471 128.544 42.5328C130.915 43.5688 133.321 44.5971 135.996 44.143C137.577 43.8751 139.176 43.5516 140.673 43C142.229 42.4271 143.338 41.2819 143.836 39.59C144.63 36.8903 145.7 34.2717 146.134 31.4676C146.205 31.008 146.453 30.576 146.732 29.8306ZM230.446 114.024C230.551 113.837 230.686 113.455 230.937 113.176C233.085 110.792 235.291 108.458 237.404 106.043C238.664 104.603 239.997 103.416 242.042 103.399C242.187 103.397 242.344 103.295 242.475 103.208C243.295 102.659 244.201 102.81 245.057 102.979C247.67 103.495 250.135 104.474 252.505 105.656C253.19 105.999 253.754 106.648 254.271 107.244C254.745 107.792 254.394 108.546 253.647 108.699C253.255 108.779 252.845 108.808 252.443 108.807C250.912 108.803 249.378 108.788 247.846 108.753C247.531 108.746 247.115 108.749 246.921 108.564C245.889 107.578 244.418 108.054 243.28 107.403C242.821 107.14 242.336 107.451 242.092 107.943C241.673 108.786 241.821 109.334 242.611 110.024C243.147 110.492 243.792 110.821 244.022 111.612C244.537 113.381 244.477 115.114 243.866 116.83C243.469 117.947 242.848 118.793 241.532 119.017C240.664 119.164 240.401 119.638 240.468 120.322C240.55 121.157 241.039 121.667 241.903 121.629C242.534 121.6 243.17 121.429 243.779 121.24C244.392 121.052 244.96 120.71 245.576 120.542C245.824 120.474 246.284 120.608 246.4 120.799C246.521 120.996 246.439 121.462 246.269 121.658C245.907 122.076 245.382 122.353 245.014 122.768C244.566 123.276 244.342 123.946 244.663 124.571C245.06 125.344 245.915 126.01 245.994 126.781C246.071 127.537 245.404 128.36 245.104 129.168C245.025 129.381 245.101 129.649 245.093 129.891C245.077 130.436 244.802 130.791 244.291 130.974C243.759 131.164 243.232 131.368 242.697 131.551C242.108 131.753 241.573 131.64 241.137 131.196C240.857 130.91 240.6 130.598 240.355 130.282C237.932 127.171 235.681 123.937 233.379 120.739C231.967 118.776 231.64 116.46 230.488 114.463C230.452 114.4 230.47 114.306 230.446 114.024ZM227.455 143.343C227.363 142.994 227.197 142.643 227.186 142.287C227.072 138.638 226.556 135.06 225.185 131.658C224.71 130.48 224.262 129.17 223.417 128.287C221.294 126.065 218.887 124.159 215.742 123.511C214.716 123.3 213.692 123.079 212.672 122.843C212.383 122.776 211.918 122.699 211.864 122.526C211.701 121.991 212.257 121.962 212.576 121.763C214.485 120.571 216.341 119.284 218.304 118.19C220.692 116.858 223.18 115.707 225.602 114.436C226.512 113.959 227.021 114.215 227.511 115.16C228.548 117.158 229.719 119.09 230.683 121.122C231.882 123.653 233.512 125.984 234.099 128.814C234.28 129.688 235.045 130.436 235.517 131.257C236.637 133.21 237.723 135.178 238.382 137.351C238.523 137.816 238.426 138.147 238.004 138.34C236.257 139.139 234.498 139.911 232.753 140.712C231.739 141.178 230.731 141.66 229.74 142.174C229.171 142.47 228.649 142.853 228.095 143.179C227.966 143.255 227.794 143.26 227.455 143.343ZM130.452 23.078C131.859 22.6507 132.85 22.514 133.676 22.0703C137.143 20.2093 141.031 19.7079 144.715 18.5669C147.63 17.6649 150.649 17.0893 153.479 15.9063C154.758 15.3726 156.051 15.0429 157.446 14.9707C158.317 14.9261 159.212 14.6863 160.023 14.3573C161.171 13.8916 162.35 13.7342 163.56 13.6147C166.367 13.3372 169.164 12.9285 171.977 12.7512C173.568 12.6509 175.223 12.7086 176.776 13.0404C179.167 13.5515 180.05 16.6063 178.346 18.3299C177.28 19.4077 175.955 20.2231 174.821 21.2398C173.626 22.31 172.265 22.8994 170.687 23.0203C166.664 23.3281 162.645 23.6887 158.618 23.9051C156.121 24.039 153.596 23.7691 151.114 24.0006C147.256 24.3598 143.417 23.8549 139.563 24.0308C136.928 24.151 134.269 23.7382 131.622 23.5465C131.402 23.5307 131.192 23.3803 130.452 23.078ZM109.736 8.67218C111.611 7.21999 113.232 6.06112 115.182 5.43875C117.094 4.82806 119.008 4.22424 120.903 3.56615C122.2 3.11552 123.494 2.91699 124.837 2.68C125.302 2.59756 125.671 2.42171 126.159 2.4114C126.811 2.39835 127.463 2.40443 128.114 2.42239C130.382 2.48422 132.646 2.71915 134.879 3.12445C135.929 3.31473 137.136 3.44731 138.124 3.86016C138.478 4.00785 138.753 4.19333 139.135 4.28263C141.761 4.89813 144.302 5.68742 146.863 6.52961C147.168 6.6299 147.475 6.75149 147.749 6.91705C149.953 8.24971 152.15 9.59474 154.348 10.9391C154.691 11.15 155.052 11.3457 155.352 11.6095C155.581 11.8108 155.724 12.1089 155.905 12.3645C155.599 12.5774 155.3 12.8069 154.98 12.9972C154.849 13.0741 154.669 13.0789 154.51 13.0974C151.274 13.4684 148.274 14.6905 145.288 15.8486C143.389 16.585 141.476 17.136 139.504 17.5495C139.111 17.6319 138.716 17.7109 138.331 17.8236C135.624 18.615 132.922 19.4297 130.206 20.1915C129.873 20.2856 129.322 20.2547 129.114 20.0424C127.873 18.7874 126.555 17.5681 125.543 16.1378C123.27 12.9257 120.101 11.2166 116.424 10.2686C114.941 9.886 113.418 9.65588 111.921 9.32409C111.301 9.1867 110.701 8.96413 109.736 8.67218ZM110.425 31.4923C110.427 31.471 110.429 31.4497 110.431 31.4291C111.153 31.4978 111.891 31.4965 112.591 31.6613C113.026 31.7637 113.601 32.0233 113.767 32.3757C114.241 33.3794 114.748 34.4448 114.866 35.5267C115.329 39.7748 115.537 44.0524 116.047 48.2942C116.769 54.3084 118.365 60.1378 120.193 65.9019C120.287 66.1986 120.495 66.4686 120.686 66.7248C121.697 68.0829 122.672 69.4719 123.749 70.7764C126.671 74.3183 129.766 77.7056 132.971 80.994C133.419 81.4528 133.814 81.9667 134.193 82.4853C134.438 82.8212 134.227 83.1029 133.916 83.2451C133.632 83.3756 133.311 83.4374 133.001 83.4999C130.766 83.9526 128.524 84.0632 126.285 83.5535C123.86 83.0019 121.36 82.6461 119.043 81.7956C116.573 80.8895 114.064 79.9079 111.987 78.1864C110.315 76.8009 108.683 75.3672 107.063 73.9212C106.26 73.2047 106.137 72.3186 106.464 71.2724C107.159 69.0549 107.691 66.7832 108.428 64.5809C109.349 61.8283 110.166 59.0538 110.683 56.1975C111.415 52.1521 112.117 48.1005 112.843 44.0537C113.027 43.0226 112.761 42.164 112.058 41.3836C111.088 40.3065 110.258 39.0872 109.201 38.1096C108.24 37.2214 107.818 36.1319 107.542 34.9676C107.007 32.7206 107.913 31.5823 110.184 31.493C110.264 31.4896 110.344 31.4923 110.425 31.4923ZM86.8743 216.959C86.8241 216.968 86.7733 216.977 86.7225 216.985C86.7225 217.387 86.7829 217.802 86.7115 218.19C86.5253 219.198 86.2814 220.195 86.0603 221.196C84.7846 220.771 84.7805 219.465 84.2577 218.53C84.0317 218.127 84.0242 217.599 83.9356 217.124C83.7714 216.253 83.6258 215.379 83.4657 214.508C83.046 212.225 82.2278 210.001 82.4662 207.62C82.4895 207.383 82.4531 207.135 82.414 206.897C81.9427 204.08 81.3176 201.351 78.6915 199.622C78.0258 199.183 77.435 198.622 76.8532 198.071C75.9746 197.239 75.0953 196.402 74.2889 195.504C73.6466 194.789 73.5937 194.004 74.0725 193.08C75.1874 190.932 76.3208 188.807 77.8884 186.945C78.7636 185.906 79.7102 184.917 80.4933 183.811C81.5972 182.253 83.0741 181.171 84.6424 180.163C85.1954 179.806 85.5155 179.792 86.0472 180.35C88.9365 183.385 91.8786 186.371 94.8572 189.318C95.8244 190.275 97.019 191.002 97.9958 191.952C98.8511 192.785 99.7352 193.686 100.264 194.73C100.873 195.93 101.133 197.313 101.495 198.63C102.223 201.275 102.873 203.943 103.638 206.577C104.312 208.898 105.171 211.167 105.805 213.499C106.162 214.811 106.235 216.203 106.421 217.56C106.442 217.712 106.408 217.904 106.325 218.026C106.2 218.21 106.03 218.392 105.837 218.489C105.745 218.535 105.505 218.424 105.417 218.316C105.164 218.008 104.896 217.691 104.737 217.332C102.872 213.134 100.713 209.066 99.2056 204.709C98.733 203.342 98.136 202.014 97.5157 200.706C97.2856 200.222 96.8755 199.784 96.4544 199.44C95.9948 199.067 95.1664 199.429 95.1588 200.011C95.1512 200.632 95.233 201.292 95.448 201.871C96.4317 204.515 97.548 207.111 98.4788 209.772C99.5133 212.731 100.444 215.728 101.322 218.737C101.582 219.629 101.788 220.682 101.095 221.503C100.702 221.967 99.7345 221.023 99.1293 219.437C97.7252 215.756 96.0264 212.193 94.8407 208.421C94.2878 206.664 93.4731 204.986 92.7483 203.285C92.5292 202.772 92.2833 202.236 91.9192 201.83C91.5386 201.405 90.9898 201.171 90.3942 201.529C89.9003 201.825 89.8082 202.326 89.9216 202.8C90.1482 203.74 90.4251 204.671 90.7507 205.582C91.4871 207.631 92.3293 209.643 93.0094 211.71C93.6613 213.695 94.1854 215.724 94.7212 217.745C95.029 218.904 95.2646 220.084 95.4872 221.264C95.5181 221.429 95.3257 221.751 95.1691 221.805C94.9919 221.867 94.6429 221.78 94.5337 221.634C93.6785 220.492 92.5491 219.562 92.185 218.052C91.8107 216.493 91.2865 214.96 90.6957 213.468C89.4242 210.249 88.0689 207.063 86.7438 203.865C86.5473 203.39 86.2526 203.01 85.666 203.09C84.9797 203.184 84.4707 203.745 84.4796 204.409C84.483 204.726 84.5545 205.047 84.6218 205.361C85.2133 208.123 85.8336 210.88 86.3969 213.648C86.6188 214.739 86.719 215.855 86.8743 216.959ZM120.385 34.9106C120.356 34.9106 120.327 34.9112 120.298 34.9119C120.462 37.3272 120.602 39.7446 120.797 42.1571C120.907 43.5165 121.082 44.8726 121.274 46.2231C121.876 50.4375 124.054 53.7204 127.32 56.3479C128.927 57.6407 130.724 58.055 132.753 57.6036C134.188 57.2835 135.48 56.6666 136.788 56.023C138.874 54.9974 141.03 54.1133 143.142 53.1399C143.79 52.8411 144.274 52.9215 144.928 53.2718C146.512 54.1215 148.28 54.7157 150.055 54.1937C151.461 53.7801 152.636 54.1105 153.749 54.7398C155.495 55.7283 157.207 56.7992 158.829 57.978C161.078 59.6102 161.044 59.6686 160.365 62.3229C160.165 63.1047 160.02 63.9269 159.666 64.6379C159.023 65.9245 158.491 67.42 157.47 68.3343C154.597 70.9083 151.299 72.706 147.219 72.3839C146.743 72.3468 146.244 72.4175 145.775 72.5192C141.715 73.4012 137.764 72.7308 133.842 71.6907C133.226 71.5279 132.633 71.2401 132.063 70.944C130.923 70.3505 129.796 69.7288 128.684 69.0852C128.061 68.7252 127.423 68.3591 126.884 67.8899C123.504 64.9477 121.334 61.2169 120.078 56.9668C119.393 54.6539 118.82 52.2908 118.435 49.9113C118.103 47.856 118.11 45.7457 117.963 43.6594C117.935 43.2589 117.975 42.8262 117.836 42.4655C117.297 41.0635 117.414 39.6051 117.34 38.155C117.267 36.7083 117.143 35.2581 116.932 33.8259C116.554 31.265 116.706 31.0396 119.156 31.0919C119.986 31.1097 120.293 31.3446 120.369 32.2576C120.441 33.1362 120.385 34.0258 120.385 34.9106ZM269.228 107.055C269.228 106.364 269.198 105.152 269.238 103.943C269.267 103.06 269.53 102.827 270.455 102.898C271.738 102.998 273.012 103.267 274.295 103.306C277.44 103.403 280.588 103.401 283.734 103.456C285.664 103.49 287.598 103.363 289.511 103.827C290.2 103.994 290.956 103.892 291.681 103.901C292.807 103.916 293.935 103.877 295.056 103.938C296.524 104.02 296.517 104.079 296.567 105.471C296.673 108.463 296.176 111.408 295.87 114.366C295.738 115.644 295.443 116.907 295.22 118.177C294.816 120.472 294.386 122.763 294.013 125.064C293.692 127.04 292.906 128.742 291.313 130.009C285.811 134.384 279.572 134.479 273.979 131.158C272.826 130.475 271.649 129.599 271.258 128.195C270.785 126.493 270.245 124.766 270.115 123.021C269.728 117.88 269.528 112.724 269.228 107.055ZM16.2898 161.169C16.2898 159.841 16.2774 159.036 16.3042 158.233C16.3076 158.124 16.4924 157.961 16.6181 157.931C16.7384 157.902 16.9609 157.974 17.02 158.072C18.0106 159.729 18.9798 161.396 19.9574 163.06C20.4032 163.82 20.8895 164.559 21.299 165.338C23.1324 168.83 24.9494 172.328 26.7608 175.832C27.5013 177.263 28.2817 178.68 28.9219 180.156C30.3968 183.558 31.7604 187.009 33.2366 190.413C35.4245 195.459 37.2422 200.623 38.4065 206.007C39.0124 208.805 39.213 211.594 38.4519 214.403C38.1565 215.491 37.9566 216.608 37.7718 217.722C37.201 221.167 36.198 224.453 34.6311 227.596C34.0108 228.839 32.9907 228.988 31.9301 229.231C31.6965 229.285 31.2912 229.049 31.1215 228.826C30.8371 228.453 30.6915 227.975 30.4641 227.554C28.6217 224.135 27.4402 220.436 25.9234 216.879C24.6622 213.922 23.1248 211.096 22.2957 207.941C22.0017 206.822 21.4741 205.735 21.2502 204.555C20.544 200.834 19.765 197.129 19.0554 193.41C18.6329 191.191 18.1432 188.97 17.9446 186.727C17.652 183.437 17.5895 180.127 17.4377 176.825C17.382 175.615 17.3958 174.399 17.3003 173.192C16.9671 169.01 16.6003 164.831 16.2898 161.169ZM132.602 250.627V250.398H126.786C123.556 250.397 120.326 250.426 117.097 250.388C110.642 250.314 104.187 250.195 97.7321 250.11C93.5383 250.055 89.3439 250.047 85.1508 249.978C83.6223 249.952 82.0952 249.728 80.5682 249.737C76.5496 249.763 72.531 249.763 68.5117 249.714C61.4809 249.628 54.4486 249.634 47.4178 249.533C42.3372 249.462 37.282 249.261 32.3326 247.789C29.5759 246.968 27.1971 245.517 24.7797 244.1C23.6277 243.424 23.3447 242.542 23.7719 241.936C24.3627 241.095 25.2063 241.311 25.9722 241.548C28.2755 242.257 30.5685 243.004 32.8553 243.769C34.5349 244.331 36.1588 245.189 37.8796 245.466C39.8525 245.784 41.9058 245.671 43.922 245.629C46.2528 245.579 48.5829 245.281 50.9102 245.307C56.4792 245.369 62.0462 245.542 67.6132 245.704C71.9759 245.829 76.3366 246.019 80.6994 246.152C83.8325 246.248 86.9629 246.659 90.1043 246.277C92.0408 246.041 93.956 246.117 95.8925 246.458C97.1502 246.679 98.5063 246.772 99.7503 246.546C102.81 245.992 105.871 246.22 108.933 246.234C112.639 246.252 116.344 246.306 120.049 246.396C121.73 246.437 123.439 246.447 125.08 246.76C126.619 247.054 128.144 247.171 129.654 246.958C131.993 246.628 134.316 246.707 136.653 246.837C138.749 246.955 140.847 247.126 142.945 247.137C151.111 247.178 159.276 247.157 167.441 247.181C168.324 247.183 169.208 247.316 170.09 247.402C172.341 247.621 174.586 247.978 176.842 248.044C180.799 248.161 184.765 248.006 188.721 248.144C192.649 248.279 196.577 248.096 200.509 248.381C203.563 248.603 206.649 248.473 209.718 248.402C212.056 248.347 214.389 248.077 216.727 248.009C220.762 247.892 224.755 247.43 228.718 246.694C231.174 246.238 233.604 245.601 236.077 245.285C238.664 244.955 241.133 244.321 243.532 243.335C244.949 242.751 246.372 242.18 247.815 241.667C249.494 241.068 251.213 240.613 253.023 240.775C253.706 240.836 254.284 241.12 254.44 241.875C254.579 242.556 254.456 243.186 253.835 243.587C253.297 243.934 252.741 244.278 252.149 244.512C250.806 245.042 249.409 245.441 248.08 246.002C243.993 247.727 239.867 249.235 235.406 249.755C231.012 250.267 226.655 251.122 222.202 251.032C221.64 251.02 221.074 251.093 220.512 251.145C219.393 251.248 218.274 251.477 217.158 251.454C210.866 251.326 204.571 251.522 198.277 251.223C194.328 251.036 190.362 251.239 186.406 251.148C183.992 251.092 181.583 250.659 179.172 250.651C163.649 250.604 148.125 250.627 132.602 250.627ZM89.2099 218.041C89.3679 218.007 89.5252 217.972 89.6839 217.938C90.7033 220.854 92.2207 223.391 94.8957 224.969C94.851 225.142 94.851 225.229 94.8105 225.291C92.9283 228.108 91.0749 230.937 90.388 234.34C90.2918 234.814 89.8989 234.902 89.4743 234.958C87.5365 235.211 85.8762 234.329 84.1375 233.717C82.4085 233.109 81.567 231.92 81.4358 230.13C81.376 229.326 81.2228 228.53 81.115 227.729C80.7042 224.697 80.4555 221.635 79.3681 218.732C79.0858 217.977 78.8433 217.207 78.6042 216.437C77.3114 212.272 74.9422 208.754 72.0041 205.602C69.3766 202.781 66.1198 200.851 62.6267 199.313C61.8291 198.962 60.9368 198.793 60.0706 198.644C59.5629 198.557 59.1212 198.868 58.9302 199.37C58.6967 199.983 58.9605 200.519 59.4509 200.84C59.9133 201.145 60.4662 201.338 61.0041 201.494C63.8508 202.325 66.3155 203.868 68.5343 205.757C73.2406 209.763 76.1189 214.985 77.547 220.89C78.5671 225.105 79.2541 229.439 78.9504 233.839C78.923 234.239 78.9573 234.648 78.9992 235.049C79.1256 236.268 79.2589 236.37 80.4809 236.471C83.4547 236.717 86.4271 236.98 89.4002 237.238C91.5613 237.426 93.7197 237.726 95.8849 237.787C100.452 237.917 100.374 239.61 100.731 242.595C100.74 242.675 100.751 242.756 100.751 242.836C100.753 243.412 100.454 243.757 99.8946 243.802C99.3326 243.848 98.7646 243.83 98.1999 243.824C94.9685 243.78 91.7371 243.755 88.5065 243.679C83.8229 243.569 79.14 243.418 74.4565 243.291C71.7087 243.218 68.9603 243.159 66.2118 243.096C62.1733 243.003 58.1355 242.868 54.0969 242.83C49.6524 242.789 45.2072 242.853 40.7627 242.841C38.6263 242.835 38.2925 242.518 37.9181 240.418C37.8755 240.179 37.8199 239.938 37.8158 239.698C37.7656 237.036 37.405 234.332 37.7505 231.722C38.3832 226.932 39.2913 222.165 40.3575 217.45C41.1392 213.996 42.5089 210.678 43.3443 207.233C44.5608 202.209 47.0345 197.799 49.6675 193.462C50.6602 191.827 52.0176 190.414 53.2135 188.903C53.5185 188.518 53.8675 188.584 54.2803 188.773C56.179 189.639 58.1169 190.425 59.9929 191.337C62.5016 192.557 64.9375 193.266 67.3205 191.082C67.7698 190.67 68.2074 190.87 68.5172 191.363C68.7315 191.705 68.9692 192.034 69.1773 192.381C70.9352 195.301 72.9686 197.992 75.6078 200.186C76.3497 200.803 77.1122 201.397 77.8101 202.061C78.2669 202.495 78.8508 202.981 78.9855 203.538C79.5522 205.887 80.1162 208.254 80.3985 210.648C80.6362 212.663 81.0023 214.634 81.4756 216.595C81.7415 217.694 82.1797 218.765 82.3233 219.876C82.5534 221.65 83.7803 222.724 84.9144 223.829C85.8555 224.747 87.3682 224.383 87.9459 223.154C88.3176 222.363 88.4968 221.475 88.705 220.618C88.9111 219.768 89.0443 218.901 89.2099 218.041ZM74.3259 277.117C75.063 276.668 75.366 276.452 75.6943 276.287C77.762 275.253 79.3186 273.647 80.6808 271.829C82.8083 268.99 83.6573 265.782 83.4238 262.262C83.3771 261.553 83.193 260.85 83.7322 260.183C85.1982 258.37 86.5617 256.472 88.0627 254.689C89.4311 253.067 91.1876 252.359 93.392 252.39C100.503 252.491 107.617 252.394 114.729 252.469C125.686 252.583 136.643 252.785 147.6 252.931C151.396 252.983 155.192 252.937 158.987 253.009C165.528 253.132 172.067 253.318 178.608 253.465C179.282 253.479 179.795 253.62 180.291 254.177C181.947 256.037 183.683 257.823 185.397 259.63C185.717 259.967 185.759 260.284 185.562 260.712C185.36 261.147 185.283 261.639 185.099 262.086C184.343 263.927 184.203 265.866 184.341 267.805C184.551 270.805 185.591 273.453 188.003 275.428C188.337 275.702 188.582 276.086 189.135 276.728C187.031 276.728 185.339 276.769 183.65 276.721C175.508 276.498 167.367 276.886 159.225 276.725C155.027 276.641 150.826 276.716 146.626 276.728C142.447 276.74 138.269 276.927 134.089 276.816C133.847 276.809 133.599 276.793 133.363 276.832C130.235 277.366 127.081 276.946 123.94 277.056C118.05 277.262 112.15 277.185 106.253 277.201C96.3122 277.227 86.3721 277.237 76.4321 277.247C75.8997 277.247 75.3673 277.183 74.3259 277.117ZM124.76 145.076C124.76 145.059 124.759 145.042 124.758 145.024C124.516 145.024 124.273 145.021 124.032 145.024C123.708 145.03 123.38 145.007 123.063 145.053C122.2 145.181 121.675 145.756 121.717 146.487C121.752 147.124 122.191 147.473 123.11 147.515C123.997 147.556 124.888 147.522 125.774 147.565C126.336 147.591 126.698 147.961 126.685 148.505C126.659 149.632 126.752 150.819 126.431 151.871C125.866 153.725 125.448 155.605 125.004 157.485C124.354 160.231 123.403 162.899 123.064 165.728C122.893 167.159 122.38 168.547 122.136 169.973C121.918 171.242 121.813 172.536 121.736 173.824C121.633 175.535 122.305 177.122 122.595 178.765C123.198 182.174 123.544 185.631 124.427 188.993C124.468 189.149 124.484 189.313 124.488 189.474C124.653 195.141 126.266 200.616 126.724 206.245C126.75 206.562 126.904 206.867 126.956 207.185C127.795 212.446 128.675 217.702 129.449 222.974C130.035 226.971 130.519 230.979 131.289 234.952C131.809 237.637 132.012 240.384 132.328 243.106C132.411 243.825 132.126 244.165 131.384 244.204C130.012 244.278 128.635 244.335 127.263 244.291C125.922 244.248 125.027 243.415 124.778 242.097C124.643 241.385 124.678 240.631 124.477 239.943C123.231 235.664 122.908 231.229 122.204 226.858C121.615 223.2 121.023 219.542 120.355 215.897C119.907 213.444 119.365 211.006 118.79 208.579C118.271 206.387 117.858 204.135 117.023 202.06C115.913 199.302 114.445 196.686 113.117 194.018C112.939 193.658 112.722 193.304 112.455 193.008C111.634 192.095 110.664 192.194 110.14 193.303C109.622 194.395 109.243 195.552 108.775 196.669C108.466 197.406 108.105 197.549 107.529 197.106C105.87 195.831 104.209 194.556 102.613 193.204C101.02 191.857 99.5044 190.418 97.9574 189.017C96.589 187.779 95.211 186.552 93.8639 185.292C92.0449 183.593 90.2513 181.866 88.4481 180.149C88.2722 179.982 88.0771 179.828 87.9363 179.634C87.6031 179.178 87.5915 178.65 88.084 178.372C88.9131 177.905 89.8041 177.54 90.6854 177.172C92.3609 176.472 92.7346 175.188 91.5647 173.798C90.5776 172.626 89.6008 171.459 88.8115 170.138C87.983 168.753 87.1017 167.4 86.2664 166.019C85.2696 164.37 84.2976 162.707 83.3118 161.05C82.8873 160.336 82.9711 159.692 83.509 159.058C84.6507 157.714 85.7896 156.368 86.8887 154.99C87.7872 153.864 88.65 152.706 89.4888 151.534C91.2666 149.047 93.2395 146.703 94.7769 144.037C95.4954 142.79 96.3905 141.627 97.3282 140.531C98.2693 139.431 99.3574 138.455 100.388 137.432C102.218 135.613 103.95 133.674 105.92 132.022C107.603 130.612 109.148 129.106 110.49 127.392C111.15 126.548 111.968 125.989 112.849 125.404C115.827 123.423 118.38 120.974 120.291 117.914C120.975 116.819 121.823 115.779 122.261 114.591C122.935 112.766 124.185 112.414 125.866 112.633C126.265 112.685 126.675 112.64 127.077 112.672C130.449 112.941 133.604 113.774 136.174 116.151C136.708 116.644 137.276 117.103 137.845 117.556C140.463 119.641 143.378 120.77 146.797 120.574C149.135 120.441 151.486 120.554 153.83 120.514C154.633 120.501 155.074 120.836 155.123 121.603C155.228 123.24 156.257 124.193 157.513 125.017C158.436 125.622 159.375 125.927 160.489 125.59C161.102 125.405 161.756 125.311 162.394 125.287C162.608 125.28 163.002 125.596 163.028 125.801C163.312 128.01 162.265 129.449 160.145 129.751C156.141 130.322 152.123 130.573 148.074 130.309C144.61 130.084 141.138 129.987 137.674 129.788C136.634 129.728 135.607 129.495 134.571 129.373C132.895 129.176 131.221 128.92 129.539 128.848C128.074 128.784 126.774 129.434 126.148 130.762C125.824 131.449 125.474 131.74 124.839 131.804C124.131 131.875 123.389 132.002 122.709 131.869C120.527 131.447 118.509 132.148 116.562 132.844C114.375 133.626 113.811 135.733 114.876 137.823C115.542 139.13 116.575 139.949 117.917 140.436C120.038 141.205 122.217 141.094 124.384 140.767C126.696 140.418 128.975 139.811 131.295 139.594C133.278 139.409 135.296 139.611 137.298 139.653C137.454 139.657 137.607 139.747 137.763 139.789C140.105 140.429 142.497 140.743 144.917 140.846C146.96 140.934 147.197 141.333 146.296 143.146C145.746 144.252 144.987 144.893 143.649 144.855C141.468 144.794 139.284 144.886 137.103 144.862C134.597 144.835 132.091 144.693 129.588 144.714C127.977 144.728 126.369 144.948 124.76 145.076ZM96.5045 131.556C96.3396 132.453 96.2359 133.328 96.0127 134.172C95.5387 135.961 95.1835 137.768 94.41 139.492C93.3109 141.943 91.9652 144.234 90.3825 146.367C87.9459 149.654 85.3665 152.834 82.8365 156.051C82.5349 156.435 82.2271 156.15 82.0808 155.895C81.8019 155.408 81.5793 154.883 81.3822 154.355C80.0262 150.735 78.7979 147.078 77.9283 143.299C77.2372 140.296 76.6086 137.307 76.7302 134.197C76.8965 129.97 77.841 125.9 78.9443 121.839C79.996 117.964 81.9592 114.543 84.0626 111.21C85.0834 109.592 86.4566 108.16 87.8374 106.816C89.102 105.585 90.5934 104.588 91.9803 103.482C92.2888 103.236 92.6741 103.017 92.8465 102.69C93.0135 102.374 93.1062 101.847 92.9489 101.579C92.7957 101.317 92.284 101.151 91.9309 101.154C91.5551 101.156 91.1608 101.366 90.8105 101.553C87.4032 103.37 84.7585 106.015 82.5988 109.176C82.2368 109.705 81.9297 110.273 81.6055 110.829C79.9822 113.61 78.0842 116.239 76.9968 119.316C75.8097 122.672 74.7209 126.041 74.611 129.651C74.4393 135.317 74.5286 140.943 75.8702 146.509C76.7818 150.288 77.7009 154.029 79.7569 157.393C80.1265 157.999 80.29 158.733 80.5311 159.414C81.15 161.152 81.6597 162.915 82.6572 164.517C84.5689 167.587 86.164 170.855 88.4343 173.7C88.659 173.982 88.806 174.324 89.0031 174.661C86.3941 176.316 83.9362 177.841 81.5127 179.42C77.6013 181.968 73.356 183.96 69.5476 186.686C68.1091 187.716 66.5168 188.529 65.0069 189.462C64.502 189.773 64.1455 189.765 63.8219 189.208C63.2147 188.161 62.5662 187.14 61.937 186.106C60.7122 184.096 60.1152 181.807 59.0999 179.71C57.4574 176.313 55.5773 173.03 54.4665 169.394C54.3504 169.014 54.1787 168.635 53.9582 168.305C52.5018 166.138 51.6569 163.684 50.7234 161.284C49.4093 157.908 47.9845 154.547 47.0372 151.062C45.4896 145.368 44.6584 139.527 44.5498 133.607C44.5285 132.476 44.5924 131.344 44.5697 130.213C44.4949 126.458 45.4964 122.866 46.2796 119.25C46.6526 117.53 47.4577 115.907 47.9021 114.197C49.0067 109.948 51.0188 106.089 52.947 102.198C53.8744 100.329 54.9625 98.5274 56.1083 96.7805C56.9814 95.4479 58.1197 94.2918 59.0374 92.9845C61.7563 89.1129 65.101 85.876 68.9692 83.1908C70.6144 82.0491 72.3771 81.0702 74.1281 80.092C74.8899 79.6668 75.7919 79.4978 76.5688 79.0932C80.2178 77.1931 84.042 75.7402 88.027 74.762C91.6272 73.8779 95.2701 73.1676 98.8957 72.3893C99.6788 72.221 100.585 71.7759 101.224 72.017C101.941 72.287 102.43 73.1814 103.001 73.8202C105.58 76.7026 108.347 79.3597 111.745 81.2873C112.302 81.6033 112.79 82.0436 113.297 82.4434C114.774 83.6091 116.465 84.382 118.244 84.8869C119.863 85.3471 121.55 85.569 123.207 85.8994C128.73 87.0006 134.151 86.4703 139.396 84.5674C144.498 82.7161 149.158 80.0103 153.292 76.4595C153.947 75.8976 154.656 75.7402 155.493 75.6612C157.674 75.4545 159.585 76.4581 161.606 76.9252C163.08 77.2653 164.536 77.8237 165.893 78.4976C167.182 79.1378 168.437 79.9347 169.523 80.8758C171.52 82.6076 173.548 84.3531 175.264 86.35C178.358 89.951 180.938 93.9455 183.519 97.9312C184.09 98.8118 184.608 99.6966 185.09 100.622C185.61 101.619 186.233 102.562 186.821 103.521C187.832 105.168 188.885 106.791 189.858 108.459C191.111 110.609 192.372 112.76 193.506 114.973C195.041 117.968 197.187 120.68 197.807 124.113C197.685 124.185 197.558 124.309 197.411 124.343C192.451 125.458 187.506 126.615 182.647 128.131C180.572 128.778 178.428 129.204 176.319 129.741C175.231 130.018 174.125 130.25 173.069 130.622C170.565 131.507 168.106 132.521 165.593 133.375C162.776 134.332 159.9 135.11 157.088 136.08C154.405 137.006 151.657 137.643 148.875 138.121C147.949 138.28 146.954 138.085 145.996 137.997C144.717 137.88 143.445 137.66 142.164 137.579C141.022 137.509 139.92 137.469 138.976 136.667C138.623 136.367 138.097 136.274 137.66 136.068C135.184 134.904 132.71 133.737 130.239 132.561C130.024 132.459 129.794 132.321 129.662 132.135C129.546 131.972 129.511 131.712 129.533 131.506C129.544 131.397 129.759 131.222 129.875 131.226C130.97 131.278 132.083 131.255 133.154 131.455C136.243 132.033 139.305 132.792 142.492 132.416C142.807 132.379 143.14 132.359 143.448 132.418C148.263 133.337 153.106 133.125 157.932 132.659C159.588 132.499 161.202 131.851 162.825 131.39C163.835 131.103 164.5 130.388 164.757 129.394C165.464 126.658 166.198 123.922 166.227 121.061C166.245 119.293 165.591 118.275 163.873 117.936C162.699 117.704 161.449 117.597 160.265 117.726C155.345 118.263 150.414 118.011 145.487 118.071C144.17 118.087 142.975 117.707 141.756 117.192C139.987 116.444 138.718 115.077 137.311 113.9C135.399 112.303 133.265 111.187 130.864 110.756C128.515 110.333 126.173 109.558 123.694 110.305C122.642 110.622 121.453 110.551 120.326 110.544C115.4 110.512 110.474 110.442 105.547 110.377C104.708 110.366 103.974 110.568 103.31 111.123C102.135 112.104 100.903 113.018 99.7201 113.99C97.4223 115.88 95.1375 117.784 92.8569 119.694C90.9424 121.297 88.9949 122.865 87.1525 124.548C86.1413 125.472 85.3527 126.616 85.0285 128.015C84.8533 128.773 84.9763 129.425 85.3809 130.092C86.1949 131.431 87.4664 131.85 88.8939 131.829C91.3827 131.791 93.8701 131.656 96.5045 131.556ZM181.503 170.953C181.302 172.194 181.16 173.128 180.997 174.06C180.679 175.882 180.251 177.691 180.042 179.526C179.548 183.846 178.897 188.133 177.757 192.335C177.736 192.413 177.682 192.484 177.672 192.562C177.415 194.505 176.834 194.937 179.658 195.137C187.492 195.691 195.337 195.512 203.172 195.768C206.476 195.876 209.776 196.255 213.093 196.194C213.417 196.188 213.741 196.21 214.064 196.204C215.476 196.177 215.696 196.07 216.136 194.678C216.67 192.985 217.159 191.274 217.568 189.547C218.201 186.874 218.785 184.189 219.324 181.496C220.401 176.111 221.756 170.794 223.133 165.483C224.284 161.04 225.555 156.628 226.693 152.182C227.011 150.942 227.139 149.631 227.187 148.347C227.235 147.092 227.638 146.324 228.855 145.748C231.905 144.304 234.863 142.668 237.873 141.139C238.587 140.777 239.369 140.548 240.109 140.233C241.424 139.675 241.735 139.024 241.187 137.584C240.98 137.041 241.026 136.73 241.353 136.293C242.043 135.372 242.839 134.608 243.886 134.106C244.681 133.724 245.43 133.238 246.242 132.903C246.653 132.733 247.192 132.665 247.616 132.775C249.69 133.313 251.792 133.225 253.883 133.063C254.654 133.004 255.463 132.71 256.143 132.325C258.127 131.204 258.53 130.072 257.719 127.906C257.484 127.279 257.501 126.838 257.945 126.39C258.173 126.16 258.445 125.97 258.646 125.721C258.994 125.293 259.259 124.515 259.639 124.462C260.184 124.386 260.803 124.823 261.385 125.054C261.757 125.203 262.198 125.293 262.471 125.553C263.726 126.746 265.274 127.073 266.912 127.18C267.485 127.217 268.082 127.226 268.297 127.905C269.282 131.023 271.744 132.771 274.434 134.103C279.848 136.785 285.35 136.66 290.674 133.808C294.273 131.88 296.373 128.951 297.069 124.724C297.765 120.495 298.262 116.255 298.725 112.007C299.059 108.959 299.143 105.883 299.295 102.817C299.35 101.717 299.232 101.647 298.076 101.502C295.505 101.179 292.946 101.038 290.343 101.314C288.516 101.508 286.639 101.628 284.8 101.123C284.264 100.976 283.677 100.987 283.113 100.964C280.046 100.833 276.978 100.73 273.912 100.585C272.703 100.527 271.498 100.381 270.29 100.285C269.809 100.247 269.322 100.196 268.841 100.222C267.41 100.298 267.256 100.378 266.971 101.871C266.822 102.65 266.495 103.017 265.737 103.067C265.335 103.094 264.929 103.128 264.535 103.209C262.313 103.666 260.11 104.162 258.622 106.119C258.2 106.673 257.78 106.661 257.2 106.214C254.499 104.126 251.484 102.579 248.23 101.591C246.551 101.081 244.765 100.901 243.017 100.647C241.435 100.417 240.002 101.081 238.552 101.574C238.328 101.65 238.097 101.777 237.932 101.943C236.746 103.133 235.513 104.287 234.419 105.559C233.321 106.835 232.376 108.243 231.344 109.578C231.05 109.957 230.685 110.284 230.352 110.635C230.062 110.942 229.781 111.133 229.311 110.903C227.965 110.246 226.756 110.971 225.62 111.488C223.575 112.419 221.582 113.478 219.624 114.585C215.487 116.926 211.388 119.331 207.273 121.712C205.808 122.559 204.404 123.53 202.629 123.671C201.94 123.726 201.453 123.691 200.987 123.02C199.755 121.245 198.437 119.549 197.511 117.559C196.665 115.743 195.548 114.054 194.55 112.309C193.163 109.881 191.803 107.437 190.382 105.029C187.885 100.802 185.552 96.4748 182.652 92.4968C181.278 90.6111 179.923 88.7111 178.551 86.824C176.308 83.7376 173.519 81.1829 170.634 78.7223C168.678 77.9714 167.19 76.3908 165.142 75.7485C163.23 75.1488 161.41 74.2578 159.54 73.5166C158.943 73.2796 158.312 73.1312 157.712 72.9032C157.448 72.8036 157.222 72.605 156.98 72.4512C157.17 72.2094 157.322 71.9188 157.556 71.7347C158.451 71.034 159.219 70.2536 159.86 69.2871C161.627 66.6197 162.837 63.7937 163.105 60.5589C163.439 56.5224 163.195 52.499 163.047 48.4715C162.993 47.0234 162.85 45.5753 162.677 44.1362C162.592 43.4369 162.906 43.0934 163.454 42.8083C164.015 42.5177 164.635 42.2773 165.093 41.8651C167.709 39.5096 169.208 36.5681 169.452 33.0428C169.585 31.1097 169.636 29.1705 169.671 27.2326C169.682 26.6302 169.95 26.4248 170.462 26.2201C173.149 25.1423 175.934 24.2808 178.333 22.5662C180.104 21.3002 181.567 19.7738 181.74 17.5323C181.985 14.3669 181.379 12.4579 178.456 10.8855C177.844 10.5558 177.087 10.327 176.4 10.3353C172.86 10.3758 169.301 9.99729 165.798 10.9879C164.106 11.4673 162.311 11.5827 160.575 11.9248C160.03 12.032 159.664 11.8788 159.254 11.5697C157.14 9.97256 155.112 8.22842 152.857 6.85866C150.249 5.27388 147.424 4.06487 144.531 3.03377C143.389 2.62641 142.225 2.28226 141.046 1.99924C140.12 1.77736 139.101 1.71828 138.202 1.41671C137.814 1.28619 137.502 1.13438 137.086 1.06431C135.999 0.880212 134.91 0.702295 133.818 0.546359C131.643 0.235175 129.449 0.00711092 127.249 0.000118363C125.036 -0.00594095 122.81 0.220062 120.672 0.812205C120.233 0.933794 119.849 1.14125 119.403 1.22918C118.888 1.33085 118.377 1.45106 117.872 1.59326C116.864 1.87834 115.88 2.24516 114.927 2.67931C114.193 3.01248 113.479 3.38686 112.783 3.79215C112.435 3.9948 112.07 4.18852 111.688 4.30598C109.068 5.10764 107.154 7.0036 105.027 8.56776C104.417 10.156 102.8 10.8319 101.833 12.1021C100.854 13.3873 100.147 14.8203 99.3457 16.2086C98.0385 18.4741 97.2952 20.9238 96.3245 23.3033C95.2557 25.9206 95.1011 28.6168 95.3985 31.3673C95.641 33.6074 95.8341 35.8606 97.0108 37.8891C97.3227 38.4277 97.3467 39.1291 97.5294 39.748C97.7094 40.3628 97.8571 40.9996 98.1339 41.5718C99.7132 44.8396 101.347 48.0806 102.921 51.3518C103.726 53.0224 104.362 54.7783 105.231 56.4132C105.719 57.3323 106.182 58.2494 106.618 59.1939C106.95 59.9159 107.02 60.5692 106.807 61.2925C106.167 63.4598 105.513 65.623 104.889 67.7944C104.684 68.5088 104.178 68.7712 103.529 69.0089C100.625 70.073 97.5699 70.422 94.5618 70.9949C93.2154 71.2511 91.8409 71.4063 90.5288 71.7814C87.4369 72.6676 84.3278 73.4479 81.2998 74.6233C78.2971 75.7897 75.344 77.0743 72.3819 78.3245C70.6199 79.0685 68.963 80.1614 67.4263 81.3203C63.8075 84.0488 60.5652 87.1902 57.8339 90.8289C56.484 92.628 54.9323 94.3309 53.908 96.3045C53.0686 97.9202 51.4316 99.0584 51.1768 100.987C49.1633 103.379 48.1789 106.323 47.0764 109.145C45.3776 113.498 44.0992 118.001 43.0763 122.583C41.7498 128.527 42.0192 134.473 42.6697 140.426C42.9829 143.292 43.5043 146.152 44.1748 148.957C44.8301 151.698 45.7396 154.383 46.634 157.062C48.6742 163.176 51.3979 169.005 54.145 174.825C55.0401 176.72 55.8404 178.66 56.7155 180.565C56.9642 181.107 56.8076 181.432 56.4195 181.829C54.7392 183.552 52.9875 185.222 51.4625 187.076C49.2732 189.738 47.1774 192.476 45.596 195.583C44.0951 198.532 42.32 201.346 41.5781 204.63C41.5369 204.816 41.2773 205.054 41.0945 205.077C40.9427 205.097 40.6597 204.87 40.5985 204.696C40.3066 203.859 39.9514 203.017 39.8361 202.15C39.4699 199.392 38.3502 196.867 37.418 194.303C36.1231 190.744 34.5954 187.267 33.102 183.782C31.8016 180.75 30.4339 177.747 29.0483 174.753C28.4074 173.368 27.6635 172.031 26.947 170.682C24.6863 166.423 22.6193 162.059 19.7966 158.111C18.725 156.611 17.9364 154.909 16.9919 153.316C16.5144 152.511 16.1517 151.423 14.8774 151.79C13.6451 152.145 13.7749 153.314 13.7563 154.222C13.7117 156.483 13.8058 158.747 13.8532 161.009C13.9233 164.318 14.1658 167.612 14.4701 170.912C14.8623 175.168 14.8884 179.457 15.1007 183.731C15.2855 187.432 15.9443 191.073 16.6133 194.707C17.0942 197.32 17.6856 199.914 18.2338 202.514C19.3714 207.91 21.2035 213.067 23.5528 218.052C24.2061 219.438 24.7927 220.863 25.297 222.31C26.767 226.525 28.9975 230.353 31.2136 234.193C31.4952 234.681 31.7301 235.196 31.9843 235.7C32.8814 237.487 33.3218 239.525 34.8997 240.941C35.0288 241.057 35.0783 241.451 34.9835 241.577C34.8825 241.709 34.5356 241.76 34.3412 241.7C31.8792 240.94 29.4358 240.121 26.9642 239.394C26.1288 239.148 25.2317 239.025 24.3593 239.008C21.3629 238.953 20.4657 242.397 21.6651 244.292C22.4283 245.498 23.5247 246.334 24.7694 246.926C26.8041 247.894 28.8663 248.817 30.9656 249.632C33.5224 250.624 36.2516 250.992 38.9258 251.501C43.2281 252.32 47.6211 252.076 51.9708 252.351C53.0061 252.415 53.8064 252.594 54.4885 253.447C55.7909 255.076 57.1772 256.638 58.5545 258.205C59.0443 258.763 59.1123 259.204 58.7084 259.91C57.4327 262.141 57.0151 264.608 57.1579 267.149C57.3592 270.723 58.6926 273.715 61.8236 275.715C62.2303 275.974 62.6109 276.279 62.9784 276.593C63.0739 276.674 63.1391 276.887 63.102 277.003C63.0691 277.109 62.8802 277.228 62.7565 277.232C61.3833 277.273 60.0094 277.313 58.6362 277.315C49.7417 277.332 40.8472 277.341 31.9534 277.35C29.2846 277.353 26.6152 277.36 23.9471 277.336C23.6778 277.334 23.4092 277.133 23.1413 277.023C23.2361 276.816 23.278 276.543 23.4367 276.411C24.8642 275.222 25.5937 273.631 26.1048 271.905C26.1735 271.674 26.2339 271.437 26.3342 271.219C26.6688 270.492 27.1057 270.232 27.8826 270.406C28.6678 270.582 29.433 270.851 30.2086 271.072C30.6674 271.203 31.1249 271.397 31.5907 271.427C32.5435 271.487 33.1246 270.803 32.8938 269.882C32.639 268.869 32.2625 267.886 31.9953 266.875C31.8737 266.416 32.1155 266.112 32.6287 266.092C34.3227 266.028 35.7549 266.822 37.1439 267.603C38.1118 268.147 38.9211 268.969 39.8058 269.661C40.251 270.009 40.6796 270.386 41.1625 270.673C41.9202 271.12 42.6972 270.669 42.6374 269.81C42.5989 269.255 42.4924 268.681 42.2857 268.168C41.653 266.6 40.9571 265.059 40.2839 263.508C40.1548 263.212 39.9315 262.93 39.8979 262.626C39.8388 262.087 39.6952 261.409 39.946 261.023C40.2984 260.48 40.9667 260.866 41.484 261.036C45.991 262.514 49.5803 265.268 52.4806 268.975C52.7244 269.287 52.9264 269.648 53.2225 269.898C53.3571 270.012 53.7184 269.988 53.8943 269.885C54.0612 269.787 54.2391 269.481 54.2055 269.307C53.9671 268.095 53.3681 267.029 52.5657 266.122C49.8509 263.057 46.6162 260.733 42.759 259.272C41.4971 258.793 40.2386 258.776 38.9458 258.81C38.1613 258.83 37.7635 259.296 37.6736 260.014C37.5114 261.306 37.5252 262.583 38.1359 263.792C38.3887 264.293 38.592 264.823 38.785 265.352C38.8311 265.477 38.7939 265.69 38.7088 265.789C38.6401 265.869 38.4258 265.887 38.3049 265.846C38.0782 265.769 37.8522 265.656 37.6612 265.511C36.1898 264.389 34.4209 264.084 32.6795 263.808C30.6682 263.489 29.4365 264.516 29.5972 266.438C29.6377 266.919 29.7545 267.397 29.7545 267.877C29.7545 268.019 29.4701 268.29 29.3293 268.281C28.6884 268.244 28.0529 268.121 27.4134 268.04C25.9585 267.858 24.9034 268.386 24.2995 269.766C23.8489 270.796 23.3261 271.794 22.8906 272.83C22.2401 274.379 21.1073 275.527 19.7671 276.435C18.7655 277.114 17.6046 277.455 16.3289 277.403C14.3911 277.324 12.4484 277.339 10.5078 277.352C9.95209 277.356 9.35168 277.384 8.85504 277.596C8.3371 277.818 7.88095 278.338 8.11591 278.954C8.26495 279.349 8.68054 279.77 9.07278 279.913C9.58112 280.097 10.1856 280.044 10.7489 280.045C14.4694 280.051 18.1899 280.051 21.9096 280.038C26.7581 280.025 31.6079 280 36.4563 279.98C40.6563 279.964 44.8555 279.976 49.0548 279.928C57.2898 279.834 65.5249 279.684 73.7606 279.602C78.6921 279.553 83.6237 279.593 88.5559 279.587C92.1919 279.583 95.832 279.68 99.4618 279.532C103.011 279.387 106.554 279.372 110.103 279.4C115.193 279.438 120.283 279.359 125.373 279.327C130.79 279.292 136.205 279.233 141.621 279.221C152.054 279.199 162.485 279.215 172.917 279.189C178.328 279.175 183.74 279.16 189.149 279.042C194.297 278.931 199.443 279.009 204.588 278.972C209.513 278.935 214.437 278.829 219.362 278.773C221.946 278.743 224.531 278.724 227.115 278.755C229.52 278.783 231.919 278.478 234.326 278.695C234.72 278.73 235.179 278.743 235.51 278.573C235.816 278.417 236.185 277.997 236.178 277.701C236.168 277.283 235.942 276.718 235.616 276.498C235.262 276.257 234.689 276.282 234.211 276.286C227.509 276.35 220.808 276.447 214.106 276.498C211.931 276.514 209.756 276.4 207.579 276.385C206.697 276.378 205.813 276.497 204.928 276.512C204.661 276.515 204.39 276.358 204.121 276.275C204.288 276.019 204.419 275.727 204.631 275.513C205.363 274.772 206.163 274.095 206.864 273.326C209.68 270.236 210.953 266.585 210.535 262.424C210.42 261.264 210.662 260.445 211.488 259.629C212.798 258.335 213.959 256.89 215.246 255.57C215.989 254.808 216.938 254.462 218.034 254.28C219.709 254.001 221.372 253.878 223.064 253.883C227.604 253.896 232.03 253.042 236.436 252.038C239.019 251.449 241.655 251.069 244.215 250.394C247.714 249.471 251.172 248.385 254.031 245.99C254.585 245.527 255.284 245.228 255.801 244.734C257.139 243.455 257.562 241.909 256.257 240.217C255.414 239.123 254.449 238.492 253.012 238.447C251.122 238.389 249.333 238.597 247.572 239.352C245.202 240.368 242.778 241.255 240.364 242.162C240.112 242.256 239.753 242.151 239.482 242.043C239.408 242.014 239.431 241.625 239.48 241.42C240.609 236.708 239 232.688 236.191 229.063C234.43 226.792 232.044 225.28 229.315 224.334C226.18 223.248 222.994 222.403 219.706 221.874C216.445 221.35 213.166 220.659 210.348 218.827C208.259 217.469 206.197 215.991 204.423 214.258C203.087 212.955 201.722 212.616 200.049 212.854C199.089 212.99 198.146 213.227 197.189 213.377C196.5 213.486 196.173 213.229 196.299 212.652C196.674 210.92 196.36 210.559 196.836 208.853C197.134 207.785 197.42 207.642 198.619 207.636C200.317 207.627 202.017 207.715 203.714 207.671C206.129 207.607 208.543 207.481 210.955 207.335C211.603 207.297 212.275 207.103 212.49 206.358C213.095 204.268 213.697 202.174 214.243 200.068C214.437 199.319 214.195 199.056 213.385 199.003C210.644 198.824 207.904 198.646 205.161 198.516C199.43 198.244 193.7 197.969 187.967 197.759C184.412 197.63 180.852 197.627 177.294 197.55C176.5 197.533 176.135 197.9 176.011 198.663C175.65 200.89 175.191 203.102 174.883 205.335C174.175 210.462 173.4 214.053 172.411 219.116C171.667 222.926 170.809 226.697 169.789 230.44C169.303 232.227 169.07 234.081 168.683 235.896C168.463 236.922 168.174 237.932 167.897 238.945C167.494 240.42 167.056 241.886 166.664 243.364C166.245 244.951 165.929 245.102 164.295 245.022C162.289 244.923 160.275 244.993 158.265 244.969C158.041 244.966 157.636 244.825 157.632 244.735C157.62 244.474 157.695 244.125 157.872 243.956C158.399 243.457 158.96 242.986 159.561 242.582C162.561 240.561 163.974 237.523 164.901 234.202C165.29 232.804 165.545 231.362 165.749 229.923C165.929 228.65 165.986 227.356 166.038 226.068C166.106 224.377 166.284 222.667 166.113 220.995C165.76 217.543 165.299 214.095 164.71 210.675C164.069 206.944 163.175 203.258 162.496 199.532C161.727 195.31 160.457 191.243 158.967 187.231C158.631 186.326 158.394 185.379 158.179 184.436C157.275 180.497 155.704 176.797 154.247 173.048C153.523 171.186 152.652 169.387 152.198 167.39C151.816 165.71 150.778 164.182 150.063 162.572C150.01 162.45 150.182 162.181 150.315 162.045C150.366 161.993 150.636 162.089 150.749 162.185C150.923 162.334 151.087 162.521 151.188 162.726C151.827 164.027 152.49 165.317 153.062 166.648C154.014 168.865 154.861 171.128 155.833 173.337C157.001 175.994 158.263 178.611 159.463 181.256C159.748 181.885 160.181 181.808 160.647 181.588C163.774 180.111 166.906 178.646 170.013 177.129C171.531 176.388 173.002 175.549 174.49 174.746C176.677 173.567 178.862 172.382 181.503 170.953Z" fill="#16161D"></path><path fill-rule="evenodd" clip-rule="evenodd" d="M283.25 93.1417C282.093 92.0577 281.168 91.1859 280.237 90.3211C278.657 88.8524 276.764 87.9319 274.679 87.55C271.5 86.9688 268.275 86.986 265.051 87.1241C262.942 87.2147 260.884 86.951 258.892 86.161C256.773 85.3209 254.923 84.0802 253.062 82.7847C250.253 80.8289 247.643 78.3999 243.958 78.1272C238.082 76.4531 232.312 77.0886 226.579 78.8732C225.353 79.2545 224.075 79.5093 222.802 79.6866C219.583 80.1331 216.373 79.7546 213.167 79.4461C211.704 79.3053 210.485 78.516 209.733 77.3743C208.298 75.1953 207.223 72.8707 208.25 70.1044C208.603 69.1558 209.071 68.5121 210.07 68.4633C211.759 68.3802 213.433 68.328 215.101 68.8789C217.54 69.684 220.027 70.3421 222.499 71.0455C223.91 71.4474 225.36 71.6734 226.813 71.3993C229.184 70.9521 231.579 70.5606 233.892 69.8956C237.41 68.8844 240.936 68.304 244.613 68.3603C246.975 68.3974 249.07 68.9016 250.937 70.3291C251.379 70.6664 251.836 70.9995 252.214 71.4007C253.268 72.5156 254.216 73.7363 255.33 74.7825C256.789 76.1543 258.242 77.6374 260.227 78.2048C262.393 78.8238 264.612 79.2703 266.824 79.7134C268.558 80.0603 270.335 80.2052 272.062 80.5871C274.382 81.0996 276.56 82.0476 278.124 83.8879C279.472 85.4734 280.586 87.2567 281.807 88.9506C282.672 90.1514 283.007 91.5287 283.25 93.1417ZM266.721 89.4095C267.444 89.3607 268.168 89.3085 268.893 89.2632C271.599 89.0915 274.22 89.5771 276.709 90.5718C278.218 91.175 279.329 92.4094 280.415 93.6246C281.806 95.1833 283.264 96.6828 284.705 98.1969C284.924 98.427 285.189 98.6241 285.462 98.7897C285.992 99.1119 286.728 98.8412 286.76 98.223C286.811 97.2716 286.802 96.2844 286.601 95.3598C286.311 94.0299 285.851 92.735 285.42 91.4394C284.553 88.8297 283.234 86.4804 281.563 84.2767C280.59 82.9914 279.764 81.6169 278.377 80.7259C275.915 79.1446 273.32 77.906 270.337 77.7144C267.505 77.5323 264.763 76.8495 262.02 76.1962C260.425 75.8163 259.044 74.97 257.898 73.7761C256.613 72.4373 255.308 71.1163 254.05 69.752C252.046 67.5799 249.551 66.5372 246.663 66.0034C243.047 65.3357 239.597 65.9745 236.137 66.7638C233.864 67.2818 231.618 67.9241 229.368 68.541C226.649 69.2863 223.92 69.3715 221.277 68.3733C218.94 67.4899 216.52 66.9335 214.127 66.2679C213.05 65.9677 211.937 65.7898 210.835 65.5885C208.98 65.2498 207.412 65.9828 206.299 67.323C205.291 68.5362 204.495 69.978 204.41 71.6645C204.267 74.4775 205.238 76.9416 207.074 78.9667C207.897 79.8741 209.134 80.5109 210.301 80.9794C213.18 82.1362 216.209 82.536 219.316 82.2798C220.2 82.2076 221.095 82.2454 221.973 82.141C223.167 81.9995 224.367 81.8353 225.536 81.5626C227.419 81.1236 229.272 80.5535 231.152 80.0994C235.185 79.126 239.173 79.5952 243.117 80.6194C245.171 81.1518 247.005 82.1719 248.666 83.4922C249.862 84.4423 251.012 85.4562 252.256 86.3396C252.965 86.8438 253.799 87.1996 254.614 87.5266C258.502 89.0825 262.558 89.5744 266.721 89.4095Z" fill="#16161D"></path><path fill-rule="evenodd" clip-rule="evenodd" d="M3.87935 255.914C3.86423 257.28 4.45844 258.154 5.59395 258.432C6.8325 258.734 7.69186 258.317 8.31767 257.107C8.8473 256.083 8.58557 255.002 7.53524 253.887C7.10246 253.428 5.99924 253.233 5.31161 253.61C4.42958 254.095 3.86767 254.842 3.87935 255.914Z" fill="#16161D"></path><path fill-rule="evenodd" clip-rule="evenodd" d="M15.8805 266.339C16.0303 266.557 16.2453 267.082 16.6348 267.384C17.1012 267.747 17.6961 267.626 18.1797 267.261C19.3681 266.363 19.8661 265.018 18.2979 263.997C18.0313 263.824 17.5202 263.793 17.2331 263.929C16.3875 264.332 15.9485 265.069 15.8805 266.339Z" fill="#16161D"></path><path fill-rule="evenodd" clip-rule="evenodd" d="M3.44765 270.503C3.48268 269.612 2.65972 268.573 1.94186 268.602C1.11479 268.636 0.0314906 269.678 0.000578165 270.469C-0.0303342 271.289 0.845506 272.2 1.68701 272.223C2.42478 272.242 3.41742 271.273 3.44765 270.503Z" fill="#16161D"></path><path fill-rule="evenodd" clip-rule="evenodd" d="M131.91 121.49C133.633 121.477 134.758 120.037 134.289 118.386C134.137 117.85 133.852 117.351 133.615 116.841C133.341 116.25 132.82 116.115 132.222 116.074C131.574 116.029 131.398 116.212 131.537 116.909C131.615 117.299 131.783 117.685 131.784 118.074C131.785 118.348 131.642 118.758 131.438 118.86C131.227 118.967 130.773 118.874 130.586 118.699C129.943 118.094 129.382 117.402 128.763 116.769C128.488 116.487 128.176 116.212 127.831 116.033C127.188 115.702 126.503 116.22 126.574 116.941C126.582 117.022 126.576 117.104 126.592 117.183C126.971 119.097 129.945 121.505 131.91 121.49Z" fill="#16161D"></path><path fill-rule="evenodd" clip-rule="evenodd" d="M165.815 265.736C165.321 265.646 164.938 265.587 164.558 265.507C162.323 265.031 161.575 265.277 160.303 267.227C159.402 268.608 158.235 269.692 156.93 270.633C156.153 271.194 155.247 271.576 154.417 272.069C154.229 272.18 154.115 272.417 153.967 272.595C154.205 272.788 154.441 273.148 154.681 273.149C157.744 273.169 160.342 272.147 162.202 269.608C162.626 269.03 162.863 268.076 163.396 267.886C163.931 267.695 164.735 268.225 165.408 268.472C167.337 269.18 168.702 268.26 168.809 266.16C168.827 265.838 168.805 265.514 168.814 265.191C168.862 263.58 169.33 263.188 170.898 263.758C173.033 264.532 174.954 265.724 176.613 267.29C177.371 268.006 178.025 268.836 178.796 269.538C179.03 269.752 179.596 269.882 179.827 269.744C180.095 269.585 180.349 269.039 180.274 268.746C180.119 268.143 179.836 267.521 179.441 267.041C177.369 264.525 174.949 262.464 171.852 261.257C170.837 260.862 169.834 260.71 168.782 260.761C167.236 260.835 166.256 261.721 165.995 263.258C165.928 263.653 165.948 264.062 165.921 264.465C165.893 264.858 165.856 265.25 165.815 265.736Z" fill="#16161D"></path><path fill-rule="evenodd" clip-rule="evenodd" d="M149.859 264.143C148.84 264.165 148.379 264.631 148.415 265.603C148.449 266.548 148.98 267.032 149.954 267.008C150.882 266.985 151.389 266.452 151.399 265.491C151.408 264.538 150.93 264.12 149.859 264.143Z" fill="#16161D"></path><path fill-rule="evenodd" clip-rule="evenodd" d="M141.115 272.696C141.114 273.519 141.611 274.132 142.324 274.185C143.245 274.255 144.098 273.363 144.06 272.372C144.035 271.715 143.499 271.188 142.844 271.175C141.824 271.155 141.115 271.779 141.115 272.696Z" fill="#16161D"></path><path fill-rule="evenodd" clip-rule="evenodd" d="M139.786 57.2505C139.484 57.4277 138.974 57.5527 138.881 57.8227C138.741 58.2266 138.725 58.8442 138.948 59.1753C139.728 60.3355 140.823 61.2327 142.041 61.9004C143.332 62.6079 145.122 62.8065 146.577 62.8545C147.272 62.8772 147.97 62.847 148.661 62.7639C149.664 62.643 150.472 62.452 151.439 62.0728C151.922 61.8832 152.369 61.4449 152.681 61.0108C153.238 60.2318 152.817 59.3594 151.878 59.2598C151.242 59.1925 150.594 59.2096 149.953 59.1938C146.978 59.1203 144.06 58.7247 141.253 57.6805C140.809 57.5156 140.343 57.4112 139.786 57.2505Z" fill="#16161D"></path><path fill-rule="evenodd" clip-rule="evenodd" d="M141.022 13.2441C142.148 13.1878 143.277 13.1665 144.399 13.0586C144.828 13.0174 145.129 12.6753 144.958 12.191C144.325 10.3823 144.455 10.3377 142.68 10.3342C140.905 10.3308 139.129 10.3377 137.354 10.3747C136.493 10.3933 136.235 10.7622 136.373 11.6243C136.563 12.8024 136.863 13.0895 138.114 13.139C139.081 13.1768 140.051 13.1459 141.019 13.1459C141.02 13.1788 141.021 13.2118 141.022 13.2441Z" fill="#16161D"></path><path fill-rule="evenodd" clip-rule="evenodd" d="M197.869 267.431C196.962 267.453 195.961 266.189 195.96 265.019C195.959 263.759 196.938 262.779 198.258 262.722C199.362 262.673 200.359 263.703 200.36 264.893C200.361 266.046 199.028 267.404 197.869 267.431ZM198.027 271.444C199.799 271.509 201.267 270.722 202.323 269.088C204.306 266.022 204.156 263.205 202.13 260.334C201.209 259.031 199.901 258.706 198.512 259.024C196.052 259.587 194.107 260.963 192.983 263.295C192.745 263.786 192.636 264.373 192.6 264.924C192.47 266.971 193.273 268.708 194.567 270.226C195.263 271.044 196.491 271.442 198.027 271.444Z" fill="#16161D"></path><path fill-rule="evenodd" clip-rule="evenodd" d="M69.2355 264.903C69.2272 263.539 69.978 262.706 71.2331 262.685C72.5417 262.664 73.2066 263.375 73.2479 264.84C73.2829 266.09 72.5444 266.961 71.4659 266.944C70.1717 266.922 69.2423 266.071 69.2355 264.903ZM71.0023 270.972C72.7464 271.235 73.9279 270.292 75.0071 268.953C77.07 266.395 77.1531 262.359 74.7433 259.683C74.2968 259.188 73.8091 258.852 73.1091 258.78C69.7438 258.434 67.1946 260.176 65.7142 263.106C65.5061 263.518 65.4683 264.04 65.4415 264.517C65.3323 266.463 66.0219 268.17 67.2351 269.636C68.1673 270.762 69.4635 271.166 71.0023 270.972Z" fill="#16161D"></path><path fill-rule="evenodd" clip-rule="evenodd" d="M115.025 19.5028C116.125 19.4973 116.906 18.8131 116.932 17.8321C116.957 16.8787 116.11 15.7342 115.361 15.7088C114.385 15.6751 113.195 16.8031 113.126 17.8253C113.066 18.719 113.96 19.5083 115.025 19.5028Z" fill="#16161D"></path><path fill-rule="evenodd" clip-rule="evenodd" d="M107.397 19.6138C108.241 19.5623 109.113 18.6734 109.093 17.8848C109.071 16.987 107.891 16.0424 106.879 16.1118C105.947 16.1764 105.211 16.9465 105.231 17.8367C105.253 18.8438 106.274 19.6825 107.397 19.6138Z" fill="#16161D"></path></svg>